<?xml version="1.0" encoding="utf-8"?>
<!-- Generator: Adobe Illustrator 16.0.4, SVG Export Plug-In . SVG Version: 6.00 Build 0)  -->
<!DOCTYPE svg PUBLIC "-//W3C//DTD SVG 1.1//EN" "http://www.w3.org/Graphics/SVG/1.1/DTD/svg11.dtd">
<svg version="1.1" id="Capa_1" xmlns="http://www.w3.org/2000/svg" xmlns:xlink="http://www.w3.org/1999/xlink" x="0px" y="0px"
	 width="26.275px" height="19.604px" viewBox="3.123 18.26 26.275 19.604" enable-background="new 3.123 18.26 26.275 19.604"
	 xml:space="preserve">
<path fill="#FFFFFF" d="M26.297,27.156V20.92h-2.59l0.011,3.898l-7.243-6.558L3.123,30.023c0,0,0.824,1.518,2.619,0
	c0.238-0.201,0.951-0.805,0.951-0.805v8.057h0.002c0,0-0.022,0.589,0.55,0.589c0.714,0,6.409-0.009,6.409-0.009l0.011-5.428
	c0,0-0.093-0.895,0.774-0.895h3.174c1.027,0,0.964,0.895,0.964,0.895l-0.013,5.41c0,0,5.392,0,6.271,0
	c0.729,0,0.695-0.73,0.695-0.73V29.06c0,0,0.746,0.692,1.01,0.905c1.996,1.61,2.857,0,2.857,0L26.297,27.156z"/>
</svg>
